# xmcd
#
# Track frame offsets:
#	150
#	11970
#	26535
#	39095
#	50845
#	60755
#	73225
#	86572
#	100767
#	123540
#	136212
#	149072
#	161240
#	167272
#	182040
#	195912
#	210932
#	224660
#
# Disc length: 3154 seconds
#
# Revision: 3
# Processed by: cddbd v1.5.2PL0 Copyright (c) Steve Scherf et al.
# Submitted via: CDex 1.51
#
DISCID=000c5012
DTITLE=Blues and Soul - Volume 3
DYEAR=1900
DGENRE=Blues
TTITLE0=The Del Vikings - Come Along With Me
TTITLE1=Rae Earth - Love is Here and Now Your Gon
TTITLE2=Gladys Knight and the Pips - Come See Abo
TTITLE3=Clarence Carter - Band of Gold
TTITLE4=John Lee Hooker - Dimples
TTITLE5=Howlin' Wolf - Little Baby
TTITLE6=Muddy Waters - Close to You
TTITLE7=Ray Charles - Walkin' and Talkin'
TTITLE8=Bb King - Everday I Have the Blues
TTITLE9=Billie Holiday - God Bless the Child
TTITLE10=Sonny Boy Williamson - Keep It to Yoursel
TTITLE11=Jimmy Reed - Little Rain
TTITLE12=Leadbelly - Big Fat Mama
TTITLE13=Joe Simon - Say
TTITLE14=Little Walter - You're So Fine
TTITLE15=Elmor James - It Hurts Me Too
TTITLE16=Memphis Slim - I Guess I'm A Fool
TTITLE17=Buddy Guy - Goin Home
EXTD=
EXTT0=
EXTT1=
EXTT2=
EXTT3=
EXTT4=
EXTT5=
EXTT6=
EXTT7=
EXTT8=
EXTT9=
EXTT10=
EXTT11=
EXTT12=
EXTT13=
EXTT14=
EXTT15=
EXTT16=
EXTT17=
PLAYORDER=
